<?xml version="1.0" encoding="UTF-8"?>
<svg width="126px" height="122px" viewBox="0 0 126 122" version="1.1" xmlns="http://www.w3.org/2000/svg" xmlns:xlink="http://www.w3.org/1999/xlink">
    <title>Group</title>
    <g id="Page-1" stroke="none" stroke-width="1" fill="none" fill-rule="evenodd">
        <g id="Color-logo-with-background-Copy" transform="translate(0.764706, 0.764706)" fill="#65D3A7" fill-rule="nonzero">
            <g id="Group">
                <path d="M123.159375,72.9888264 L117.121112,66.9505635 C114.726994,64.5564453 110.574364,64.5564453 108.180246,66.9505635 L75.5524397,99.5783698 L71.0608196,116.061768 L69.9591015,117.163486 C69.1328129,117.989775 69.1328129,119.303362 69.9379146,120.150837 L69.9167277,120.193211 L69.9591015,120.172024 C70.3616524,120.574575 70.9125114,120.786444 71.4421836,120.786444 C71.9930427,120.786444 72.5227148,120.574575 72.9464526,120.172024 L74.0481707,119.070306 L90.531569,114.578686 L123.138188,81.9720665 C125.617054,79.4720138 125.617054,75.4676922 123.159375,72.9888264 Z M80.4466107,100.658901 L102.141983,78.9635285 L111.125223,87.9467687 L89.4510377,109.663328 L80.4466107,100.658901 Z M78.5397908,104.74797 L85.3619685,111.570148 L75.9761775,114.133761 L78.5397908,104.74797 Z M120.150837,78.9423417 L114.133761,84.9594176 L105.150521,75.9761775 L111.167597,69.9591015 C111.951512,69.1751867 113.32866,69.1751867 114.112574,69.9591015 L120.150837,75.9973643 C120.977126,76.8024661 120.977126,78.1372399 120.150837,78.9423417 Z" id="Shape"></path>
                <path d="M76.2727939,67.798039 L95.3409923,67.798039 L95.3409923,44.4924631 L76.2727939,44.4924631 L72.0354164,44.4924631 L57.2045954,44.4924631 L52.967218,44.4924631 L38.1363969,44.4924631 L33.8990195,44.4924631 L14.830821,44.4924631 L14.830821,63.5606616 L14.830821,67.798039 L14.830821,82.62886 L14.830821,86.8662375 L14.830821,105.934436 L33.8990195,105.934436 L38.1363969,105.934436 L57.2045954,105.934436 L57.2045954,86.8662375 L76.2727939,86.8662375 L76.2727939,67.798039 Z M76.2727939,48.7298405 L91.1036149,48.7298405 L91.1036149,63.5606616 L76.2727939,63.5606616 L76.2727939,48.7298405 Z M38.1363969,48.7298405 L52.967218,48.7298405 L52.967218,63.5606616 L38.1363969,63.5606616 L38.1363969,48.7298405 Z M19.0681985,48.7298405 L33.8990195,48.7298405 L33.8990195,63.5606616 L19.0681985,63.5606616 L19.0681985,48.7298405 Z M19.0681985,67.798039 L33.8990195,67.798039 L33.8990195,82.62886 L19.0681985,82.62886 L19.0681985,67.798039 Z M33.8990195,101.697059 L19.0681985,101.697059 L19.0681985,86.8662375 L33.8990195,86.8662375 L33.8990195,101.697059 Z M52.967218,101.697059 L38.1363969,101.697059 L38.1363969,86.8662375 L52.967218,86.8662375 L52.967218,101.697059 Z M52.967218,82.62886 L38.1363969,82.62886 L38.1363969,67.798039 L52.967218,67.798039 L52.967218,82.62886 Z M72.0338846,67.798039 L72.0338846,82.62886 L57.2030635,82.62886 L57.2030635,67.798039 L72.0338846,67.798039 Z M72.0354164,48.7298405 L72.0354164,63.5606616 L57.2045954,63.5606616 L57.2045954,48.7298405 L72.0354164,48.7298405 Z" id="Shape"></path>
                <path d="M55.0859067,116.52788 L4.23737744,116.52788 L4.23737744,33.8990195 L105.934436,33.8990195 L105.934436,61.4419728 C105.934436,62.6072516 106.887846,63.5606616 108.053125,63.5606616 C109.218403,63.5606616 110.171813,62.6072516 110.171813,61.4419728 L110.171813,31.7803308 L110.171813,10.5934436 C110.171813,9.4281648 109.218403,8.47475488 108.053125,8.47475488 L97.4596811,8.47475488 L97.4596811,2.11868872 C97.4596811,0.953409923 96.5062711,0 95.3409923,0 L80.5101713,0 C79.3448925,0 78.3914826,0.953409923 78.3914826,2.11868872 L78.3914826,8.47475488 L31.7803308,8.47475488 L31.7803308,2.11868872 C31.7803308,0.953409923 30.8269209,0 29.6616421,0 L14.830821,0 C13.6655422,0 12.7121323,0.953409923 12.7121323,2.11868872 L12.7121323,8.47475488 L2.11868872,8.47475488 C0.953409923,8.47475488 0,9.4281648 0,10.5934436 L0,31.7803308 L0,118.646568 C0,119.811847 0.953409923,120.765257 2.11868872,120.765257 L55.0859067,120.765257 C56.2511855,120.765257 57.2045954,119.811847 57.2045954,118.646568 C57.2045954,117.481289 56.2511855,116.52788 55.0859067,116.52788 Z M82.62886,4.23737744 L93.2223036,4.23737744 L93.2223036,10.5934436 L93.2223036,16.9495098 L82.62886,16.9495098 L82.62886,10.5934436 L82.62886,4.23737744 Z M16.9495098,4.23737744 L27.5429533,4.23737744 L27.5429533,10.5934436 L27.5429533,16.9495098 L16.9495098,16.9495098 L16.9495098,10.5934436 L16.9495098,4.23737744 Z M4.23737744,12.7121323 L12.7121323,12.7121323 L12.7121323,19.0681985 C12.7121323,20.2334773 13.6655422,21.1868872 14.830821,21.1868872 L29.6616421,21.1868872 C30.8269209,21.1868872 31.7803308,20.2334773 31.7803308,19.0681985 L31.7803308,12.7121323 L78.3914826,12.7121323 L78.3914826,19.0681985 C78.3914826,20.2334773 79.3448925,21.1868872 80.5101713,21.1868872 L95.3409923,21.1868872 C96.5062711,21.1868872 97.4596811,20.2334773 97.4596811,19.0681985 L97.4596811,12.7121323 L105.934436,12.7121323 L105.934436,29.6616421 L4.23737744,29.6616421 L4.23737744,12.7121323 Z" id="Shape"></path>
            </g>
        </g>
    </g>
</svg>